<?xml version="1.0" encoding="UTF-8" standalone="no"?>
<!-- Created with Inkscape (http://www.inkscape.org/) -->

<svg
   xmlns:dc="http://purl.org/dc/elements/1.1/"
   xmlns:cc="http://creativecommons.org/ns#"
   xmlns:rdf="http://www.w3.org/1999/02/22-rdf-syntax-ns#"
   xmlns:svg="http://www.w3.org/2000/svg"
   xmlns="http://www.w3.org/2000/svg"
   xmlns:sodipodi="http://sodipodi.sourceforge.net/DTD/sodipodi-0.dtd"
   xmlns:inkscape="http://www.inkscape.org/namespaces/inkscape"
   width="43.688mm"
   height="48.852665mm"
   viewBox="0 0 43.688 48.852665"
   version="1.1"
   id="svg8"
   inkscape:version="0.92.0 r15299"
   sodipodi:docname="hybernate_icon.svg">
  <defs
     id="defs2" />
  <sodipodi:namedview
     id="base"
     pagecolor="#ffffff"
     bordercolor="#666666"
     borderopacity="1.0"
     inkscape:pageopacity="0.0"
     inkscape:pageshadow="2"
     inkscape:zoom="11.2"
     inkscape:cx="97.511613"
     inkscape:cy="188.56993"
     inkscape:document-units="mm"
     inkscape:current-layer="layer1"
     showgrid="false"
     inkscape:window-width="1366"
     inkscape:window-height="715"
     inkscape:window-x="-8"
     inkscape:window-y="-8"
     inkscape:window-maximized="1"
     fit-margin-top="0"
     fit-margin-left="0"
     fit-margin-right="0"
     fit-margin-bottom="0" />
  <metadata
     id="metadata5">
    <rdf:RDF>
      <cc:Work
         rdf:about="">
        <dc:format>image/svg+xml</dc:format>
        <dc:type
           rdf:resource="http://purl.org/dc/dcmitype/StillImage" />
        <dc:title></dc:title>
      </cc:Work>
    </rdf:RDF>
  </metadata>
  <g
     inkscape:label="Layer 1"
     inkscape:groupmode="layer"
     id="layer1"
     transform="translate(-66.087677,-67.577934)">
    <path
       style="fill:#000000;stroke-width:0.08466666"
       d="m 85.280114,116.42367 c -0.162983,-0.0181 -0.772583,-0.0731 -1.354667,-0.1223 -4.230179,-0.35743 -8.422432,-1.45187 -11.528672,-3.0097 -3.172254,-1.59095 -5.036918,-3.368 -5.911665,-5.63391 -0.175417,-0.4544 -0.175678,-0.47742 -0.177019,-15.568068 -0.0013,-14.696959 0.0031,-15.125927 0.161566,-15.582735 0.596876,-1.721073 1.851994,-3.163625 3.977872,-4.57191 3.281038,-2.173519 7.978569,-3.601315 13.689585,-4.160893 1.444777,-0.141562 6.344556,-0.141562 7.789333,0 3.274621,0.320855 5.857268,0.848449 8.568013,1.75031 4.88317,1.624623 8.27367,4.253075 9.12135,7.071232 0.12806,0.425744 0.14,1.757718 0.13918,15.536336 -8.9e-4,15.047918 -0.001,15.071348 -0.17655,15.525728 -0.55738,1.44392 -1.5153,2.68383 -2.9222,3.78242 -3.16211,2.46916 -8.070817,4.16064 -14.010126,4.82774 -1.151344,0.12932 -6.571299,0.24392 -7.366,0.15575 z m -5.402312,-4.45222 c 0.420758,-0.12606 1.035598,-0.66341 1.278352,-1.11724 0.182767,-0.34168 0.187909,-0.43402 0.229293,-4.11719 0.04166,-3.708 0.04536,-3.77332 0.233354,-4.12514 0.299477,-0.56045 0.669146,-0.9283 1.188026,-1.18216 0.569223,-0.27849 0.984568,-0.2965 2.794052,-0.1211 1.385257,0.13428 4.521188,0.092 5.902235,-0.0797 0.740037,-0.092 0.905993,-0.0879 1.317735,0.0322 0.845006,0.2465 1.548886,0.94022 1.773184,1.7476 0.04687,0.1687 0.08334,1.55654 0.08361,3.1813 5.08e-4,3.23341 0.04446,3.57749 0.550882,4.31462 0.696046,1.01313 1.940743,1.51529 3.058394,1.23386 1.980321,-0.49865 5.869301,-2.37336 6.833781,-3.29428 0.17871,-0.17064 0.44541,-0.53885 0.59267,-0.81825 l 0.26775,-0.508 0.0223,-12.388528 c 0.0203,-11.272179 0.01,-12.414566 -0.11484,-12.677493 -0.28558,-0.601818 -1.12119,-0.818922 -1.72777,-0.448904 -2.11014,1.287209 -4.80822,2.38225 -7.566514,3.070949 -1.233713,0.308037 -1.485276,0.422961 -1.724472,0.787808 -0.136739,0.208568 -0.152919,0.621223 -0.191679,4.88832 l -0.04233,4.66052 -0.226076,0.48231 c -0.124341,0.26526 -0.393117,0.64934 -0.597279,0.8535 -0.888441,0.88844 -2.047343,1.11122 -5.780645,1.11122 -4.39219,0 -5.573498,-0.35057 -6.325278,-1.8771 l -0.278722,-0.56596 -0.04233,-4.65865 c -0.03004,-3.306059 -0.0708,-4.707814 -0.140392,-4.827983 -0.251051,-0.433528 -0.506972,-0.555874 -1.943197,-0.928967 -2.717563,-0.70595 -5.224299,-1.724067 -7.037385,-2.85825 -0.499528,-0.31248 -0.635867,-0.358845 -1.058781,-0.360057 -0.449236,-0.0013 -0.509196,0.02238 -0.804334,0.317511 l -0.318911,0.318904 -0.02404,12.465762 c -0.01794,9.301018 10e-4,12.557328 0.07474,12.826438 0.141246,0.51572 0.62992,1.02343 1.573203,1.6345 1.658456,1.07435 4.043962,2.15847 6.207766,2.82119 1.047493,0.32082 1.443011,0.36239 1.963688,0.20639 z"
       id="path3702"
       inkscape:connector-curvature="0" />
  </g>
</svg>
